<?xml version="1.0" standalone="no"?>
<!DOCTYPE svg PUBLIC "-//W3C//DTD SVG 20010904//EN"
 "http://www.w3.org/TR/2001/REC-SVG-20010904/DTD/svg10.dtd">
<svg version="1.0" xmlns="http://www.w3.org/2000/svg"
 width="300.000000pt" height="74.000000pt" viewBox="0 0 300.000000 74.000000"
 preserveAspectRatio="xMidYMid meet">
<metadata>
Created by potrace 1.15, written by Peter Selinger 2001-2017
</metadata>
<g transform="translate(0.000000,74.000000) scale(0.100000,-0.100000)"
fill="#000000" stroke="none">
<path d="M2 708 c6 -41 51 -213 88 -338 15 -52 31 -108 34 -125 14 -69 33
-126 47 -139 15 -16 189 -106 202 -106 8 0 37 21 87 63 8 6 16 11 18 9 2 -2
11 5 20 15 22 24 73 63 82 63 6 0 27 -17 108 -90 12 -12 22 -17 22 -13 0 4 6
1 13 -7 21 -26 65 -44 79 -33 7 6 25 13 41 17 15 3 27 11 27 16 0 6 8 10 19
10 10 0 24 7 31 15 7 8 18 15 25 15 7 0 22 8 34 17 20 17 25 29 38 93 2 14 11
45 19 70 7 25 15 56 18 70 2 14 12 52 21 85 36 129 57 212 65 250 5 22 12 48
15 58 5 10 2 17 -5 17 -15 0 -123 -70 -128 -82 -2 -4 -8 -8 -13 -8 -5 0 -61
-35 -125 -78 l-115 -78 0 -207 c0 -114 -2 -207 -5 -207 -3 0 -38 25 -79 56
l-75 56 0 64 c0 35 2 64 5 64 3 0 15 -8 25 -18 17 -16 96 -62 106 -62 2 0 4
13 4 29 0 23 -8 34 -37 52 -21 13 -42 26 -48 28 -5 2 -24 15 -41 28 -17 12
-37 23 -45 22 -8 0 -48 -22 -89 -48 -66 -42 -75 -52 -78 -81 -3 -33 -3 -33 20
-18 13 8 34 21 48 29 14 8 33 20 43 28 16 13 17 10 17 -55 l0 -69 -45 -30
c-25 -16 -45 -33 -45 -37 0 -5 -5 -8 -12 -8 -6 0 -20 -8 -30 -17 -18 -16 -18
-10 -18 191 1 115 0 209 -2 210 -32 23 -191 126 -195 126 -3 0 -22 14 -43 30
-21 17 -41 30 -45 30 -4 0 -24 14 -45 30 -50 39 -63 39 -58 -2z m103 -95 c24
-14 145 -91 183 -115 15 -10 33 -21 40 -24 8 -4 12 -38 12 -113 l0 -108 -65
-41 c-35 -23 -69 -42 -74 -42 -5 0 -14 19 -19 43 -5 23 -24 96 -42 162 -17 66
-38 143 -44 170 -7 28 -16 61 -20 75 -4 14 -4 21 1 15 4 -5 17 -15 28 -22z
m961 -39 c-9 -26 -16 -57 -16 -69 0 -12 -3 -25 -7 -29 -8 -8 -10 -14 -21 -76
-5 -25 -17 -67 -26 -95 -17 -48 -20 -60 -31 -106 -7 -33 -10 -33 -57 -4 -24
15 -56 34 -71 43 -27 17 -28 18 -26 115 1 80 5 102 21 122 11 14 23 23 27 20
5 -2 16 4 26 15 10 11 26 20 37 20 10 0 18 5 18 10 0 6 5 10 11 10 7 0 20 10
30 22 11 11 19 18 19 15 0 -4 16 5 37 18 20 14 38 23 41 21 2 -3 -3 -26 -12
-52z"/>
<path d="M1200 697 c0 -18 4 -37 9 -42 6 -6 16 -39 24 -75 8 -36 22 -90 31
-120 18 -60 37 -128 40 -147 1 -7 5 -16 9 -19 4 -4 7 -18 7 -30 0 -59 59 -143
60 -86 0 9 7 26 15 36 8 11 15 28 15 38 0 10 5 18 10 18 6 0 9 3 8 8 -2 12 14
66 25 81 6 7 12 18 13 25 1 6 8 25 15 41 6 17 13 37 15 45 5 25 44 95 45 82 2
-20 4 -26 16 -47 6 -11 13 -29 14 -40 2 -11 8 -23 12 -26 5 -4 10 -18 10 -33
1 -14 5 -26 8 -26 5 0 16 -26 69 -163 21 -52 50 -77 50 -42 0 8 4 15 8 15 4 0
8 8 8 18 2 31 28 137 44 177 10 23 23 65 25 80 1 6 3 12 4 15 4 9 10 33 21 83
5 27 12 53 15 58 4 5 12 31 19 59 l13 50 -38 0 c-30 0 -39 -4 -39 -17 0 -16
-27 -110 -76 -263 -8 -25 -14 -53 -14 -62 0 -24 -19 -33 -26 -11 -3 10 -20 52
-36 93 -17 41 -37 93 -45 115 -8 22 -21 51 -28 65 -7 14 -15 37 -19 53 -9 37
-31 34 -46 -5 -7 -18 -16 -42 -20 -53 -5 -11 -19 -45 -30 -75 -12 -30 -35 -86
-50 -125 -16 -38 -30 -76 -32 -84 -5 -17 -20 20 -43 109 -25 98 -46 170 -62
218 -13 36 -18 42 -44 42 -26 0 -29 -3 -29 -33z"/>
<path d="M1900 445 l0 -285 35 0 35 0 0 285 0 285 -35 0 -35 0 0 -285z"/>
<path d="M2030 444 l0 -286 158 4 c148 4 159 6 197 30 49 31 67 51 95 106 66
127 22 317 -87 382 -60 36 -129 50 -250 50 l-113 0 0 -286z m229 205 c29 -1
58 -8 65 -14 6 -6 18 -14 27 -17 9 -4 28 -22 42 -40 60 -78 59 -217 -1 -283
-46 -50 -91 -65 -197 -65 l-95 0 0 214 0 214 53 -3 c28 -2 76 -5 106 -6z"/>
<path d="M2654 593 c-36 -76 -75 -158 -86 -183 -11 -25 -24 -52 -29 -60 -5 -8
-12 -22 -15 -30 -11 -26 -56 -124 -66 -142 -8 -16 -4 -18 32 -18 l40 0 40 81
c22 45 40 87 40 95 0 11 23 14 115 14 l115 0 25 -50 c14 -27 25 -56 25 -65 0
-8 4 -15 8 -15 4 0 13 -13 19 -30 10 -26 16 -30 47 -30 20 0 36 5 36 11 0 11
-36 90 -94 209 -13 25 -24 48 -25 52 -1 4 -22 52 -47 105 -25 54 -55 119 -67
146 -12 26 -28 47 -35 47 -7 0 -42 -62 -78 -137z"/>
</g>
</svg>
